<svg height='300px' width='300px' fill="#F3B62C" xmlns="http://www.w3.org/2000/svg" data-name="Layer 2"
     viewBox="0 0 24 24" x="0px" y="0px">
    <title>essential</title>
    <path d="M18.18,22.511a1,1,0,0,1-.465-.115L12,19.391,6.285,22.4a1,1,0,0,1-1.451-1.054l1.091-6.364L1.3,10.471a1,1,0,0,1,.554-1.706l6.39-.928L11.1,2.047a1.041,1.041,0,0,1,1.794,0l2.857,5.79,6.39.928a1,1,0,0,1,.554,1.706l-4.623,4.507,1.091,6.364a1,1,0,0,1-.986,1.169ZM12,17.261a.991.991,0,0,1,.465.115l4.387,2.307L16.014,14.8a1,1,0,0,1,.288-.885l3.549-3.459-4.9-.712a1,1,0,0,1-.754-.548L12,4.749,9.807,9.193a1,1,0,0,1-.754.548l-4.9.712L7.7,13.912a1,1,0,0,1,.288.885l-.838,4.886,4.387-2.307A.991.991,0,0,1,12,17.261Z"></path>
</svg>